<svg width="357" height="150" viewBox="0 0 357 150" fill="none" xmlns="http://www.w3.org/2000/svg">
    <rect width="357" height="150" fill="#231F20"/>
    <path d="M53.424 72.112C53.8416 71.7376 54.2736 71.3992 54.72 71.0968C55.1808 70.78 55.6632 70.5136 56.1672 70.2976C56.6856 70.0672 57.2328 69.8944 57.8088 69.7792C58.3992 69.6496 59.0328 69.5848 59.7096 69.5848C60.9192 69.5848 61.992 69.7936 62.928 70.2112C63.864 70.6288 64.6488 71.212 65.2824 71.9608C65.9304 72.7096 66.4128 73.6024 66.7296 74.6392C67.0608 75.676 67.2264 76.8136 67.2264 78.052V92.2H61.2864V78.052C61.2864 76.8136 60.9984 75.856 60.4224 75.1792C59.8464 74.488 58.9968 74.1424 57.8736 74.1424C57.0384 74.1424 56.2536 74.3224 55.5192 74.6824C54.7848 75.0424 54.0864 75.5464 53.424 76.1944V92.2H47.4624V59.9944H53.424V72.112ZM87.8277 78.4408C87.8277 77.8216 87.7413 77.2312 87.5685 76.6696C87.4101 76.108 87.1509 75.6112 86.7909 75.1792C86.4309 74.7472 85.9773 74.4088 85.4301 74.164C84.8829 73.9048 84.2277 73.7752 83.4645 73.7752C82.0389 73.7752 80.9229 74.1784 80.1165 74.9848C79.3101 75.7912 78.7845 76.9432 78.5397 78.4408H87.8277ZM78.4533 81.9832C78.6405 84.0712 79.2309 85.5976 80.2245 86.5624C81.2325 87.5272 82.5429 88.0096 84.1557 88.0096C84.9765 88.0096 85.6821 87.916 86.2725 87.7288C86.8773 87.5272 87.4029 87.3112 87.8493 87.0808C88.3101 86.836 88.7205 86.62 89.0805 86.4328C89.4549 86.2312 89.8221 86.1304 90.1821 86.1304C90.6429 86.1304 91.0029 86.3032 91.2621 86.6488L92.9901 88.8088C92.3565 89.5432 91.6581 90.1552 90.8949 90.6448C90.1317 91.12 89.3397 91.5016 88.5189 91.7896C87.6981 92.0632 86.8701 92.2504 86.0349 92.3512C85.1997 92.4664 84.3933 92.524 83.6157 92.524C82.0605 92.524 80.6061 92.272 79.2525 91.768C77.9133 91.2496 76.7397 90.4936 75.7317 89.5C74.7381 88.492 73.9533 87.2464 73.3773 85.7632C72.8013 84.28 72.5133 82.5592 72.5133 80.6008C72.5133 79.0888 72.7581 77.6632 73.2477 76.324C73.7517 74.9848 74.4717 73.8184 75.4077 72.8248C76.3437 71.8312 77.4813 71.0464 78.8205 70.4704C80.1597 69.88 81.6717 69.5848 83.3565 69.5848C84.7821 69.5848 86.0925 69.8152 87.2877 70.276C88.4973 70.7224 89.5341 71.3776 90.3981 72.2416C91.2765 73.1056 91.9533 74.1712 92.4285 75.4384C92.9181 76.6912 93.1629 78.124 93.1629 79.7368C93.1629 80.1832 93.1413 80.5504 93.0981 80.8384C93.0549 81.1264 92.9829 81.3568 92.8821 81.5296C92.7813 81.7024 92.6445 81.8248 92.4717 81.8968C92.2989 81.9544 92.0757 81.9832 91.8021 81.9832H78.4533ZM118.794 92.2H113.07C112.638 92.2 112.286 92.092 112.012 91.876C111.753 91.66 111.544 91.408 111.386 91.12L107.001 83.7976C106.871 84.2872 106.684 84.7192 106.439 85.0936L102.681 91.12C102.508 91.3936 102.292 91.6456 102.033 91.876C101.788 92.092 101.471 92.2 101.082 92.2H95.7688L103.329 80.7088L96.0712 69.9304H101.795C102.227 69.9304 102.544 69.988 102.746 70.1032C102.947 70.2184 103.127 70.4056 103.286 70.6648L107.649 77.728C107.721 77.4832 107.814 77.2384 107.93 76.9936C108.045 76.7344 108.182 76.4824 108.34 76.2376L111.688 70.7728C112.034 70.2112 112.48 69.9304 113.027 69.9304H118.492L111.234 80.4496L118.794 92.2ZM128.978 59.9944V92.2H123.016V59.9944H128.978ZM141.804 69.9304V92.2H135.843V69.9304H141.804ZM142.517 63.6016C142.517 64.1056 142.416 64.5736 142.215 65.0056C142.013 65.4376 141.739 65.8192 141.394 66.1504C141.063 66.4816 140.667 66.7408 140.206 66.928C139.759 67.1152 139.277 67.2088 138.759 67.2088C138.269 67.2088 137.801 67.1152 137.355 66.928C136.923 66.7408 136.541 66.4816 136.21 66.1504C135.879 65.8192 135.612 65.4376 135.411 65.0056C135.223 64.5736 135.13 64.1056 135.13 63.6016C135.13 63.0976 135.223 62.6296 135.411 62.1976C135.612 61.7512 135.879 61.3624 136.21 61.0312C136.541 60.7 136.923 60.4408 137.355 60.2536C137.801 60.0664 138.269 59.9728 138.759 59.9728C139.277 59.9728 139.759 60.0664 140.206 60.2536C140.667 60.4408 141.063 60.7 141.394 61.0312C141.739 61.3624 142.013 61.7512 142.215 62.1976C142.416 62.6296 142.517 63.0976 142.517 63.6016ZM154.581 86.3248C155.143 86.9728 155.748 87.4264 156.396 87.6856C157.058 87.9448 157.742 88.0744 158.448 88.0744C159.182 88.0744 159.844 87.9448 160.435 87.6856C161.04 87.412 161.558 86.9872 161.99 86.4112C162.422 85.8208 162.753 85.0576 162.984 84.1216C163.214 83.1856 163.329 82.0552 163.329 80.7304C163.329 79.5496 163.236 78.5488 163.048 77.728C162.861 76.8928 162.58 76.2088 162.206 75.676C161.846 75.1432 161.4 74.7544 160.867 74.5096C160.334 74.2648 159.715 74.1424 159.009 74.1424C158.073 74.1424 157.26 74.3512 156.568 74.7688C155.892 75.172 155.229 75.7696 154.581 76.5616V86.3248ZM154.581 72.5008C155.46 71.6224 156.432 70.9168 157.497 70.384C158.563 69.8512 159.758 69.5848 161.083 69.5848C162.364 69.5848 163.516 69.844 164.539 70.3624C165.576 70.8664 166.454 71.5936 167.174 72.544C167.908 73.4944 168.47 74.6464 168.859 76C169.262 77.3392 169.464 78.844 169.464 80.5144C169.464 82.3144 169.233 83.956 168.772 85.4392C168.326 86.908 167.685 88.168 166.85 89.2192C166.015 90.2704 165.014 91.084 163.848 91.66C162.696 92.236 161.407 92.524 159.981 92.524C159.29 92.524 158.671 92.452 158.124 92.308C157.576 92.1784 157.072 91.9912 156.612 91.7464C156.151 91.5016 155.726 91.2136 155.337 90.8824C154.948 90.5368 154.581 90.1552 154.236 89.7376L153.998 91.0768C153.897 91.4944 153.732 91.7896 153.501 91.9624C153.271 92.1208 152.961 92.2 152.572 92.2H148.62V59.9944H154.581V72.5008Z" fill="white"/>
    <path d="M48.6828 110.827V122.491C48.6828 122.945 48.6216 123.366 48.4992 123.755C48.384 124.151 48.1968 124.493 47.9376 124.781C47.6856 125.076 47.3544 125.306 46.944 125.472C46.5408 125.638 46.0512 125.72 45.4752 125.72C45.2376 125.72 45.0216 125.702 44.8272 125.666C44.6256 125.63 44.424 125.58 44.2224 125.515L44.3088 124.37C44.3376 124.234 44.4024 124.158 44.5032 124.144C44.5968 124.129 44.7804 124.122 45.054 124.122C45.6084 124.122 46.0008 123.996 46.2312 123.744C46.4616 123.492 46.5768 123.074 46.5768 122.491V110.827H48.6828ZM49.0824 107.436C49.0824 107.63 49.0428 107.818 48.9636 107.998C48.8844 108.17 48.7764 108.325 48.6396 108.462C48.5028 108.592 48.3444 108.696 48.1644 108.775C47.9916 108.847 47.8044 108.883 47.6028 108.883C47.4084 108.883 47.2248 108.847 47.052 108.775C46.8792 108.696 46.7244 108.592 46.5876 108.462C46.458 108.325 46.3536 108.17 46.2744 107.998C46.2024 107.818 46.1664 107.63 46.1664 107.436C46.1664 107.234 46.2024 107.047 46.2744 106.874C46.3536 106.694 46.458 106.54 46.5876 106.41C46.7244 106.273 46.8792 106.169 47.052 106.097C47.2248 106.018 47.4084 105.978 47.6028 105.978C47.8044 105.978 47.9916 106.018 48.1644 106.097C48.3444 106.169 48.5028 106.273 48.6396 106.41C48.7764 106.54 48.8844 106.694 48.9636 106.874C49.0428 107.047 49.0824 107.234 49.0824 107.436ZM58.4927 116.929C57.6359 116.958 56.9087 117.026 56.3111 117.134C55.7135 117.235 55.2275 117.372 54.8531 117.545C54.4787 117.718 54.2087 117.923 54.0431 118.16C53.8775 118.391 53.7947 118.65 53.7947 118.938C53.7947 119.212 53.8379 119.449 53.9243 119.651C54.0179 119.845 54.1403 120.007 54.2915 120.137C54.4499 120.259 54.6335 120.349 54.8423 120.407C55.0511 120.464 55.2779 120.493 55.5227 120.493C55.8467 120.493 56.1419 120.461 56.4083 120.396C56.6819 120.331 56.9375 120.241 57.1751 120.126C57.4127 120.004 57.6395 119.856 57.8555 119.683C58.0715 119.51 58.2839 119.312 58.4927 119.089V116.929ZM52.3151 112.361C52.9271 111.778 53.5895 111.342 54.3023 111.054C55.0223 110.766 55.8107 110.622 56.6675 110.622C57.2939 110.622 57.8483 110.726 58.3307 110.935C58.8131 111.137 59.2199 111.421 59.5511 111.788C59.8823 112.156 60.1307 112.595 60.2963 113.106C60.4691 113.617 60.5555 114.182 60.5555 114.802V121.8H59.6159C59.4071 121.8 59.2487 121.768 59.1407 121.703C59.0327 121.631 58.9463 121.501 58.8815 121.314L58.6547 120.353C58.3739 120.612 58.0967 120.842 57.8231 121.044C57.5495 121.238 57.2615 121.408 56.9591 121.552C56.6639 121.688 56.3471 121.793 56.0087 121.865C55.6703 121.937 55.2959 121.973 54.8855 121.973C54.4535 121.973 54.0467 121.915 53.6651 121.8C53.2907 121.678 52.9631 121.494 52.6823 121.249C52.4015 121.004 52.1783 120.698 52.0127 120.331C51.8543 119.964 51.7751 119.536 51.7751 119.046C51.7751 118.614 51.8903 118.2 52.1207 117.804C52.3583 117.401 52.7399 117.041 53.2655 116.724C53.7983 116.407 54.4895 116.148 55.3391 115.946C56.1959 115.745 57.2471 115.63 58.4927 115.601V114.802C58.4927 113.974 58.3163 113.354 57.9635 112.944C57.6107 112.534 57.0923 112.328 56.4083 112.328C55.9475 112.328 55.5587 112.386 55.2419 112.501C54.9323 112.616 54.6623 112.746 54.4319 112.89C54.2087 113.027 54.0107 113.153 53.8379 113.268C53.6723 113.383 53.4995 113.441 53.3195 113.441C53.1755 113.441 53.0495 113.401 52.9415 113.322C52.8407 113.243 52.7579 113.149 52.6931 113.041L52.3151 112.361ZM73.5324 110.827L69.0828 121.8H67.182L62.7324 110.827H64.4712C64.6368 110.827 64.7736 110.867 64.8816 110.946C64.9896 111.025 65.0616 111.126 65.0976 111.248L67.722 117.988C67.8156 118.268 67.8948 118.549 67.9596 118.83C68.0316 119.104 68.0964 119.377 68.154 119.651C68.2116 119.377 68.2764 119.104 68.3484 118.83C68.4204 118.556 68.5068 118.276 68.6076 117.988L71.2644 111.248C71.3076 111.126 71.3832 111.025 71.4912 110.946C71.5992 110.867 71.7288 110.827 71.88 110.827H73.5324ZM81.7153 116.929C80.8585 116.958 80.1313 117.026 79.5337 117.134C78.9361 117.235 78.4501 117.372 78.0757 117.545C77.7013 117.718 77.4313 117.923 77.2657 118.16C77.1001 118.391 77.0173 118.65 77.0173 118.938C77.0173 119.212 77.0605 119.449 77.1469 119.651C77.2405 119.845 77.3629 120.007 77.5141 120.137C77.6725 120.259 77.8561 120.349 78.0649 120.407C78.2737 120.464 78.5005 120.493 78.7453 120.493C79.0693 120.493 79.3645 120.461 79.6309 120.396C79.9045 120.331 80.1601 120.241 80.3977 120.126C80.6353 120.004 80.8621 119.856 81.0781 119.683C81.2941 119.51 81.5065 119.312 81.7153 119.089V116.929ZM75.5377 112.361C76.1497 111.778 76.8121 111.342 77.5249 111.054C78.2449 110.766 79.0333 110.622 79.8901 110.622C80.5165 110.622 81.0709 110.726 81.5533 110.935C82.0357 111.137 82.4425 111.421 82.7737 111.788C83.1049 112.156 83.3533 112.595 83.5189 113.106C83.6917 113.617 83.7781 114.182 83.7781 114.802V121.8H82.8385C82.6297 121.8 82.4713 121.768 82.3633 121.703C82.2553 121.631 82.1689 121.501 82.1041 121.314L81.8773 120.353C81.5965 120.612 81.3193 120.842 81.0457 121.044C80.7721 121.238 80.4841 121.408 80.1817 121.552C79.8865 121.688 79.5697 121.793 79.2313 121.865C78.8929 121.937 78.5185 121.973 78.1081 121.973C77.6761 121.973 77.2693 121.915 76.8877 121.8C76.5133 121.678 76.1857 121.494 75.9049 121.249C75.6241 121.004 75.4009 120.698 75.2353 120.331C75.0769 119.964 74.9977 119.536 74.9977 119.046C74.9977 118.614 75.1129 118.2 75.3433 117.804C75.5809 117.401 75.9625 117.041 76.4881 116.724C77.0209 116.407 77.7121 116.148 78.5617 115.946C79.4185 115.745 80.4697 115.63 81.7153 115.601V114.802C81.7153 113.974 81.5389 113.354 81.1861 112.944C80.8333 112.534 80.3149 112.328 79.6309 112.328C79.1701 112.328 78.7813 112.386 78.4645 112.501C78.1549 112.616 77.8849 112.746 77.6545 112.89C77.4313 113.027 77.2333 113.153 77.0605 113.268C76.8949 113.383 76.7221 113.441 76.5421 113.441C76.3981 113.441 76.2721 113.401 76.1641 113.322C76.0633 113.243 75.9805 113.149 75.9157 113.041L75.5377 112.361ZM93.9306 112.717C93.873 112.811 93.8118 112.879 93.747 112.922C93.6822 112.958 93.5994 112.976 93.4986 112.976C93.3834 112.976 93.2538 112.937 93.1098 112.858C92.973 112.778 92.8038 112.692 92.6022 112.598C92.4078 112.505 92.1774 112.418 91.911 112.339C91.6446 112.26 91.3278 112.22 90.9606 112.22C90.6582 112.22 90.381 112.26 90.129 112.339C89.8842 112.411 89.6754 112.516 89.5026 112.652C89.3298 112.782 89.1966 112.94 89.103 113.128C89.0094 113.308 88.9626 113.502 88.9626 113.711C88.9626 113.984 89.0418 114.211 89.2002 114.391C89.3658 114.571 89.5782 114.726 89.8374 114.856C90.1038 114.985 90.4026 115.104 90.7338 115.212C91.0722 115.313 91.4142 115.421 91.7598 115.536C92.1126 115.651 92.4546 115.784 92.7858 115.936C93.1242 116.08 93.423 116.263 93.6822 116.486C93.9486 116.702 94.161 116.965 94.3194 117.275C94.485 117.584 94.5678 117.962 94.5678 118.409C94.5678 118.92 94.4742 119.395 94.287 119.834C94.107 120.266 93.837 120.641 93.477 120.958C93.1242 121.274 92.685 121.523 92.1594 121.703C91.6338 121.883 91.0326 121.973 90.3558 121.973C89.5998 121.973 88.9014 121.847 88.2606 121.595C87.6198 121.343 87.0834 121.022 86.6514 120.634L87.1482 119.824C87.2058 119.723 87.2778 119.647 87.3642 119.597C87.4506 119.539 87.5658 119.51 87.7098 119.51C87.8466 119.51 87.987 119.561 88.131 119.662C88.275 119.762 88.4478 119.874 88.6494 119.996C88.851 120.112 89.0958 120.22 89.3838 120.32C89.6718 120.414 90.0318 120.461 90.4638 120.461C90.8238 120.461 91.137 120.418 91.4034 120.331C91.6698 120.238 91.8894 120.115 92.0622 119.964C92.2422 119.806 92.3754 119.626 92.4618 119.424C92.5482 119.222 92.5914 119.01 92.5914 118.787C92.5914 118.499 92.5086 118.261 92.343 118.074C92.1846 117.88 91.9722 117.714 91.7058 117.577C91.4466 117.44 91.1478 117.322 90.8094 117.221C90.471 117.12 90.1254 117.012 89.7726 116.897C89.4198 116.782 89.0742 116.648 88.7358 116.497C88.3974 116.346 88.095 116.155 87.8286 115.925C87.5694 115.694 87.357 115.414 87.1914 115.082C87.033 114.751 86.9538 114.348 86.9538 113.873C86.9538 113.448 87.0402 113.041 87.213 112.652C87.393 112.264 87.6486 111.922 87.9798 111.626C88.3182 111.331 88.7322 111.097 89.2218 110.924C89.7186 110.744 90.2838 110.654 90.9174 110.654C91.6446 110.654 92.2998 110.77 92.883 111C93.4734 111.23 93.9774 111.547 94.395 111.95L93.9306 112.717ZM105.402 112.879C105.337 112.958 105.272 113.023 105.207 113.074C105.15 113.117 105.063 113.138 104.948 113.138C104.833 113.138 104.711 113.095 104.581 113.009C104.459 112.915 104.3 112.818 104.106 112.717C103.919 112.609 103.688 112.512 103.415 112.426C103.148 112.332 102.817 112.285 102.421 112.285C101.903 112.285 101.445 112.379 101.049 112.566C100.653 112.753 100.322 113.02 100.056 113.365C99.7965 113.711 99.5985 114.132 99.4617 114.629C99.3249 115.126 99.2565 115.684 99.2565 116.303C99.2565 116.944 99.3285 117.516 99.4725 118.02C99.6165 118.517 99.8217 118.938 100.088 119.284C100.355 119.622 100.679 119.881 101.06 120.061C101.442 120.234 101.867 120.32 102.335 120.32C102.788 120.32 103.163 120.266 103.458 120.158C103.753 120.043 103.998 119.921 104.192 119.791C104.387 119.662 104.549 119.543 104.678 119.435C104.808 119.32 104.941 119.262 105.078 119.262C105.251 119.262 105.384 119.327 105.477 119.456L106.082 120.234C105.83 120.544 105.546 120.806 105.229 121.022C104.919 121.238 104.588 121.415 104.235 121.552C103.883 121.688 103.512 121.789 103.123 121.854C102.741 121.919 102.353 121.951 101.957 121.951C101.273 121.951 100.632 121.825 100.034 121.573C99.4437 121.321 98.9289 120.954 98.4897 120.472C98.0577 119.989 97.7157 119.399 97.4637 118.7C97.2117 117.995 97.0857 117.196 97.0857 116.303C97.0857 115.489 97.1973 114.737 97.4205 114.046C97.6509 113.354 97.9857 112.76 98.4249 112.264C98.8713 111.76 99.4185 111.367 100.067 111.086C100.715 110.798 101.456 110.654 102.291 110.654C103.076 110.654 103.767 110.78 104.365 111.032C104.963 111.284 105.495 111.641 105.963 112.102L105.402 112.879ZM110.899 112.933C111.252 112.213 111.677 111.648 112.174 111.238C112.67 110.827 113.268 110.622 113.966 110.622C114.204 110.622 114.427 110.651 114.636 110.708C114.852 110.759 115.039 110.838 115.198 110.946L115.057 112.534C115.007 112.728 114.888 112.825 114.701 112.825C114.6 112.825 114.449 112.807 114.247 112.771C114.046 112.728 113.83 112.706 113.599 112.706C113.261 112.706 112.962 112.757 112.703 112.858C112.444 112.951 112.21 113.095 112.001 113.29C111.799 113.477 111.619 113.711 111.461 113.992C111.302 114.265 111.155 114.578 111.018 114.931V121.8H108.912V110.827H110.122C110.352 110.827 110.507 110.87 110.586 110.957C110.672 111.036 110.734 111.18 110.77 111.389L110.899 112.933ZM119.889 110.827V121.8H117.783V110.827H119.889ZM120.289 107.436C120.289 107.63 120.249 107.818 120.17 107.998C120.091 108.17 119.983 108.325 119.846 108.462C119.717 108.592 119.562 108.696 119.382 108.775C119.202 108.847 119.015 108.883 118.82 108.883C118.626 108.883 118.442 108.847 118.269 108.775C118.097 108.696 117.942 108.592 117.805 108.462C117.675 108.325 117.571 108.17 117.492 107.998C117.42 107.818 117.384 107.63 117.384 107.436C117.384 107.234 117.42 107.047 117.492 106.874C117.571 106.694 117.675 106.54 117.805 106.41C117.942 106.273 118.097 106.169 118.269 106.097C118.442 106.018 118.626 105.978 118.82 105.978C119.015 105.978 119.202 106.018 119.382 106.097C119.562 106.169 119.717 106.273 119.846 106.41C119.983 106.54 120.091 106.694 120.17 106.874C120.249 107.047 120.289 107.234 120.289 107.436ZM125.909 119.1C126.254 119.554 126.625 119.87 127.021 120.05C127.424 120.23 127.874 120.32 128.371 120.32C129.336 120.32 130.081 119.975 130.607 119.284C131.139 118.585 131.406 117.57 131.406 116.238C131.406 115.54 131.345 114.946 131.222 114.456C131.107 113.959 130.934 113.556 130.704 113.246C130.481 112.93 130.203 112.699 129.872 112.555C129.541 112.404 129.167 112.328 128.749 112.328C128.137 112.328 127.604 112.465 127.151 112.739C126.704 113.012 126.29 113.401 125.909 113.905V119.1ZM125.801 112.469C126.031 112.195 126.276 111.947 126.535 111.724C126.801 111.493 127.086 111.299 127.388 111.14C127.691 110.975 128.011 110.849 128.349 110.762C128.695 110.669 129.062 110.622 129.451 110.622C130.077 110.622 130.643 110.744 131.147 110.989C131.658 111.234 132.093 111.594 132.453 112.069C132.813 112.544 133.091 113.131 133.285 113.83C133.487 114.528 133.587 115.331 133.587 116.238C133.587 117.052 133.476 117.808 133.253 118.506C133.037 119.197 132.723 119.798 132.313 120.31C131.91 120.821 131.413 121.224 130.823 121.519C130.239 121.807 129.581 121.951 128.846 121.951C128.191 121.951 127.629 121.843 127.161 121.627C126.693 121.411 126.276 121.109 125.909 120.72V125.483H123.803V110.827H125.066C125.361 110.827 125.545 110.968 125.617 111.248L125.801 112.469ZM140.103 121.973C139.218 121.973 138.534 121.724 138.051 121.228C137.576 120.731 137.338 120.022 137.338 119.1V112.534H136.064C135.942 112.534 135.837 112.498 135.751 112.426C135.672 112.346 135.632 112.231 135.632 112.08V111.227L137.414 110.978L137.889 107.706C137.918 107.584 137.972 107.49 138.051 107.425C138.138 107.353 138.246 107.317 138.375 107.317H139.444V111H142.555V112.534H139.444V118.96C139.444 119.392 139.549 119.716 139.758 119.932C139.974 120.14 140.247 120.245 140.578 120.245C140.773 120.245 140.938 120.22 141.075 120.169C141.219 120.119 141.342 120.065 141.442 120.007C141.543 119.942 141.63 119.885 141.702 119.834C141.774 119.784 141.838 119.759 141.896 119.759C141.968 119.759 142.022 119.777 142.058 119.813C142.101 119.842 142.144 119.892 142.188 119.964L142.814 120.979C142.468 121.296 142.058 121.541 141.583 121.714C141.108 121.886 140.614 121.973 140.103 121.973Z" fill="#FFCB47"/>
    <rect width="18" height="150" fill="#FFCB47"/>
</svg>
